<?xml version="1.0" encoding="utf-8"?>
<!-- Generator: Adobe Illustrator 18.1.0, SVG Export Plug-In . SVG Version: 6.00 Build 0)  -->

<svg version="1.1" id="Layer_1" xmlns="http://www.w3.org/2000/svg" xmlns:xlink="http://www.w3.org/1999/xlink" x="10px" y="25px"
	 width="100px" height="64px" viewBox="0 0 64 64" enable-background="new 0 0 64 64" xml:space="preserve">

<path _ngcontent-grq-c64=""  	 fill="#FFFFFF" fill-rule="evenodd" stroke-width="1" stroke="#FA2959" d="M20.5,10.5 L20.5,5.5 L10.3571429,5.5 L10.3571429,0.570219667 C10.3571429,0.543723678 10.3423322,0.519935037 10.3163886,0.507251364 C10.2921653,0.495277956 10.2625172,0.498139662 10.2412401,0.514226453 L0.526250721,7.94391708 C0.509965328,7.95632595 0.5,7.97654917 0.5,7.99937316 C0.5,8.02163736 0.509339148,8.04045251 0.529186356,8.05536638 L10.2467179,15.4870233 C10.2572526,15.4952176 10.2713966,15.5 10.2857143,15.5 C10.2951661,15.5 10.3035944,15.4980037 10.3184197,15.4904967 C10.343301,15.4783379 10.3571429,15.4561753 10.3571429,15.4285267 L10.3571429,10.5 L20.5,10.5 Z " class="leaflet-interactive"></path>

</svg>
