<?xml version="1.0" encoding="utf-8"?>
<!-- Generator: Adobe Illustrator 18.1.0, SVG Export Plug-In . SVG Version: 6.00 Build 0)  -->
<svg version="1.1" id="Layer_1" xmlns="http://www.w3.org/2000/svg" xmlns:xlink="http://www.w3.org/1999/xlink" x="0px" y="0px"
	 width="64px" height="64px" viewBox="0 0 64 64" enable-background="new 0 0 64 64" xml:space="preserve">
<g>
<path _ngcontent-grq-c64="" fill-rule="nonzero" shape-rendering="auto" stroke="none" fill="#FA2959" d="M10.2857143,16 C10.1629463,16 10.0401783,15.9598186 9.939732,15.8816873 L0.225446286,8.45253381 C0.0825891429,8.34538256 2.48689958e-14,8.17795858 2.48689958e-14,7.99937316 C2.48689958e-14,7.82078774 0.0825891429,7.65336377 0.223214286,7.54621251 L9.9375,0.11705902 C10.1116069,-0.0146472995 10.3437497,-0.0369707628 10.5379463,0.0590190436 C10.7343749,0.15500885 10.8571429,0.353684987 10.8571429,0.570219667 L10.8571429,5 L21,5 L21,11 L10.8571429,11 L10.8571429,15.4285267 C10.8571429,15.6472941 10.7343749,15.843738 10.5379463,15.9397273 C10.4598211,15.9799093 10.372768,16 10.2857143,16 Z M23,5 L27,5 L27,11 L23,11 L23,5 Z " class="ng-star-inserted"></path>
</g>
</svg>