<?xml version="1.0" encoding="utf-8"?>
<!-- Generator: Adobe Illustrator 18.1.0, SVG Export Plug-In . SVG Version: 6.00 Build 0)  -->
<svg version="1.1" id="Layer_1" xmlns="http://www.w3.org/2000/svg" xmlns:xlink="http://www.w3.org/1999/xlink" x="12px" y="12px"
	 width="64px" height="64px" viewBox="0 0 64 64" enable-background="new 0 0 64 64" xml:space="preserve">
<g fill="none" fill-rule="evenodd">
<path  fill="#05BF25" d="M16.8,0 L15.75,8.4 L14.4,8.4 L14.4,3.6 L2.4,3.6 L2.4,8.4 L0,8.4 L0,21.6 C0,22.9218756 1.0781256,24 2.4,24 L8.4,24 C8.4,20.4 6,20.4 6,15.6 L3.6,15.6 L7.2,10.8 L10.8,15.6 L8.4,15.6 C8.4,19.2 10.8,19.3218756 10.8,24 L18,24 C18,20.4 15.6,20.4 15.6,15.6 L13.2,15.6 L16.8,10.8 L20.4,15.6 L18,15.6 C18,20.4 20.4,20.4 20.4,24 L21.6,24 C22.9218756,24 24,22.9218756 24,21.6 L24,8.4 L21.45,8.4 L20.4,0 L16.8,0 Z M5,6 L7,6 L7,8 L5,8 L5,6 Z M10,6 L12,6 L12,8 L10,8 L10,6 Z" id="industry-path-t-94" class="leaflet-interactive"></path>

</g>
</svg>

